<?xml version="1.0" encoding="UTF-8" standalone="no"?>
<!DOCTYPE svg PUBLIC "-//W3C//DTD SVG 1.1//EN" "http://www.w3.org/Graphics/SVG/1.1/DTD/svg11.dtd">
<svg width="100%" height="100%" viewBox="0 0 22 22" version="1.1" xmlns="http://www.w3.org/2000/svg" xmlns:xlink="http://www.w3.org/1999/xlink" xml:space="preserve" xmlns:serif="http://www.serif.com/" style="fill-rule:evenodd;clip-rule:evenodd;stroke-linecap:round;stroke-linejoin:round;stroke-miterlimit:1.5;">
    <g transform="matrix(0.688168,0,0,0.688168,3.36041,3.5913)">
        <g transform="matrix(1.9957,0,0,1.99526,-10.618,-13.3007)">
            <rect x="2.89" y="4.063" width="15.955" height="15.964" style="fill:rgb(36,107,157);stroke:rgb(36,107,157);stroke-width:0.11px;"/>
        </g>
        <g transform="matrix(1.45313,0,0,1.45313,-4.88313,-5.21863)">
            <path d="M14.509,4.142C13.064,4.142 11.825,4.899 11.068,6.069C10.38,4.83 8.935,4.073 7.421,4.073C5.218,4.004 3.36,5.862 3.36,8.133C3.36,9.854 4.117,11.849 6.251,14.258C7.696,15.978 9.416,17.355 10.999,18.318C12.582,17.355 14.233,15.978 15.747,14.258C17.812,11.918 18.5,9.922 18.5,8.271C18.5,6 16.78,4.142 14.509,4.142ZM8.246,15.153L10.311,10.886L7.283,10.886L13.889,5.381L11.825,9.51L14.853,9.51L8.246,15.153Z" style="fill:white;fill-rule:nonzero;"/>
        </g>
    </g>
</svg>
