<?xml version="1.0" encoding="UTF-8" standalone="no"?>
<!DOCTYPE svg PUBLIC "-//W3C//DTD SVG 1.1//EN" "http://www.w3.org/Graphics/SVG/1.1/DTD/svg11.dtd">
<svg width="100%" height="100%" viewBox="0 0 22 22" version="1.1" xmlns="http://www.w3.org/2000/svg" xmlns:xlink="http://www.w3.org/1999/xlink" xml:space="preserve" xmlns:serif="http://www.serif.com/" style="fill-rule:evenodd;clip-rule:evenodd;stroke-linecap:round;stroke-linejoin:round;stroke-miterlimit:1.5;">
    <g transform="matrix(1.38495,0,0,1.40818,-3.97583,-5.98349)">
        <rect x="2.89" y="4.063" width="15.955" height="15.964" style="fill:rgb(36,107,157);stroke:rgb(36,107,157);stroke-width:0.11px;"/>
    </g>
    <g transform="matrix(0.973361,0,0,0.973361,0.347179,0.369502)">
        <g>
            <circle cx="11" cy="3.1" r="3.1" style="fill:white;"/>
        </g>
        <g>
            <path d="M11,12.7L7.7,12.7L7.7,10.3L5.2,12.8C4.1,13.9 2.5,12.5 3.7,11.3L7.9,7.1C8.2,6.8 8.6,6.6 9.2,6.6L12.9,6.6C13.5,6.6 13.9,6.8 14.2,7.1L18.4,11.3C19.5,12.4 17.9,13.9 16.9,12.8L14.3,10.2L14.3,12.6L11,12.6L11,12.7Z" style="fill:white;fill-rule:nonzero;"/>
        </g>
        <g>
            <path d="M14.3,13.9L11.8,16.4L13.6,18.2L11.7,20.1C10.6,21.2 12.1,22.8 13.2,21.6L16.1,18.5C16.7,17.9 16.9,16.7 16.2,16C16.4,16 14.3,13.9 14.3,13.9Z" style="fill:white;fill-rule:nonzero;"/>
        </g>
        <g>
            <path d="M7.7,13.9L10.2,16.4L8.4,18.2L10.3,20.1C11.4,21.2 9.9,22.8 8.7,21.6L5.8,18.5C5.2,17.9 5,16.7 5.7,16L7.7,13.9Z" style="fill:white;fill-rule:nonzero;"/>
        </g>
    </g>
</svg>
