<?xml version="1.0" encoding="UTF-8" standalone="no"?>
<!DOCTYPE svg PUBLIC "-//W3C//DTD SVG 1.1//EN" "http://www.w3.org/Graphics/SVG/1.1/DTD/svg11.dtd">
<svg width="100%" height="100%" viewBox="0 0 30 30" version="1.1" xmlns="http://www.w3.org/2000/svg" xmlns:xlink="http://www.w3.org/1999/xlink" xml:space="preserve" xmlns:serif="http://www.serif.com/" style="fill-rule:evenodd;clip-rule:evenodd;stroke-linecap:round;stroke-linejoin:round;stroke-miterlimit:1.5;">
    <g transform="matrix(1.88369,0,0,1.8773,-5.41742,-7.62864)">
        <rect x="2.89" y="4.063" width="15.955" height="15.964" style="fill:rgb(36,107,157);stroke:rgb(36,107,157);stroke-width:0.08px;"/>
    </g>
    <g transform="matrix(0.966648,0,0,0.966648,0.497765,0.49601)">
        <path d="M24,14L24,28L6,28L6,14L24,14M24,12L6,12C4.9,12 4,12.9 4,14L4,28C4,29.1 4.9,30 6,30L24,30C25.1,30 26,29.1 26,28L26,14C26,12.9 25.1,12 24,12Z" style="fill:white;fill-rule:nonzero;"/>
        <g>
            <g>
                <g>
                    <path d="M19.2,1.3C19.2,-0.5 21.7,-0.5 21.7,1.3L21.7,6.6L23.1,5C24,4 25.7,5.4 24.7,6.6L21.4,10.5C20.9,11 20.2,11 19.7,10.5L16.4,6.6C15.4,5.4 17.1,4 18,5L19.4,6.7L19.2,1.3Z" style="fill:white;fill-rule:nonzero;"/>
                </g>
                <g>
                    <path d="M8.2,9.6C8.2,11.4 10.7,11.4 10.7,9.6L10.7,4.3L12.1,6C13,7 14.7,5.6 13.7,4.4L10.4,0.5C9.8,-0.1 9.1,-0.1 8.6,0.4L5.3,4.4C4.3,5.5 5.9,7 6.9,5.9L8.3,4.2L8.2,9.6Z" style="fill:white;fill-rule:nonzero;"/>
                </g>
            </g>
            <g>
                <g>
                    <path d="M15,17.8C15.5,17.8 15.9,17.4 15.9,17C15.9,16.5 15.5,16.2 15,16.2C14.5,16.2 14.2,16.6 14.2,17C14.1,17.5 14.5,17.8 15,17.8Z" style="fill:white;fill-rule:nonzero;"/>
                </g>
            </g>
            <path d="M16,18L14,18C13.5,18 13,18.5 13,19L13,21C13,21.5 13.5,22 14,22L14,26C14,26.5 14.5,27 15,27C15.5,27 16,26.5 16,26L16,22C16.5,22 17,21.5 17,21L17,19C17,18.5 16.5,18 16,18Z" style="fill:white;fill-rule:nonzero;"/>
            <g>
                <g>
                    <path d="M10,17.8C10.5,17.8 10.9,17.4 10.9,17C10.9,16.5 10.5,16.2 10,16.2C9.5,16.2 9.2,16.6 9.2,17C9.1,17.5 9.5,17.8 10,17.8Z" style="fill:white;fill-rule:nonzero;"/>
                </g>
            </g>
            <path d="M11,18L9,18C8.5,18 8,18.5 8,19L8,21C8,21.5 8.5,22 9,22L9,26C9,26.5 9.5,27 10,27C10.5,27 11,26.5 11,26L11,22C11.5,22 12,21.5 12,21L12,19C12,18.5 11.5,18 11,18Z" style="fill:white;fill-rule:nonzero;"/>
            <g>
                <g>
                    <path d="M20,17.8C20.5,17.8 20.9,17.4 20.9,17C20.9,16.5 20.5,16.2 20,16.2C19.5,16.2 19.2,16.6 19.2,17C19.1,17.5 19.5,17.8 20,17.8Z" style="fill:white;fill-rule:nonzero;"/>
                </g>
            </g>
            <path d="M21,18L19,18C18.5,18 18,18.5 18,19L18,21C18,21.5 18.5,22 19,22L19,26C19,26.5 19.5,27 20,27C20.5,27 21,26.5 21,26L21,22C21.5,22 22,21.5 22,21L22,19C22,18.5 21.5,18 21,18Z" style="fill:white;fill-rule:nonzero;"/>
        </g>
    </g>
</svg>
