<?xml version="1.0" encoding="UTF-8" standalone="no"?>
<!DOCTYPE svg PUBLIC "-//W3C//DTD SVG 1.1//EN" "http://www.w3.org/Graphics/SVG/1.1/DTD/svg11.dtd">
<svg width="100%" height="100%" viewBox="0 0 22 22" version="1.1" xmlns="http://www.w3.org/2000/svg" xmlns:xlink="http://www.w3.org/1999/xlink" xml:space="preserve" xmlns:serif="http://www.serif.com/" style="fill-rule:evenodd;clip-rule:evenodd;stroke-linecap:round;stroke-linejoin:round;stroke-miterlimit:1.5;">
    <g transform="matrix(1.38577,0,0,1.38508,-3.97819,-5.64432)">
        <rect x="2.89" y="4.063" width="15.955" height="15.964" style="fill:rgb(36,107,157);stroke:rgb(36,107,157);stroke-width:0.11px;"/>
    </g>
    <g transform="matrix(0.94014,0,0,0.94014,0.6,0.6)">
        <g>
            <path d="M9.7,14.3L9.7,13C9.7,12.7 9.7,12.4 9.8,12.2C9.8,12 9.9,11.8 10,11.6C10.1,11.4 10.2,11.3 10.4,11.1C10.5,10.9 10.7,10.7 10.9,10.5L12.5,8.9C12.8,8.6 13,8.1 13,7.6C13,7.1 12.8,6.6 12.5,6.3C12.1,6 11.7,5.8 11.1,5.8C10.5,5.8 10,6 9.7,6.4C9.3,6.7 9.1,7.2 9,7.8L6.3,7.6C6.4,6.9 6.6,6.3 6.8,5.8C7.1,5.3 7.4,4.8 7.8,4.5C8.2,4.2 8.7,3.9 9.3,3.7C9.9,3.5 10.5,3.4 11.1,3.4C11.7,3.4 12.3,3.5 12.9,3.7C13.5,3.9 13.9,4.1 14.3,4.5C14.7,4.8 15,5.3 15.2,5.8C15.4,6.3 15.5,6.9 15.5,7.6C15.5,8.1 15.4,8.5 15.3,8.8C15.2,9.1 15,9.5 14.8,9.8C14.6,10.1 14.3,10.4 14.1,10.6C13.8,10.9 13.5,11.1 13.2,11.4C13,11.6 12.8,11.7 12.7,11.9C12.6,12 12.4,12.2 12.4,12.3C12.3,12.4 12.2,12.6 12.2,12.8C12.2,13 12.1,13.2 12.1,13.5L12.1,14.3L9.7,14.3ZM9.3,17.1C9.3,16.7 9.5,16.3 9.8,15.9C10.1,15.5 10.5,15.4 11,15.4C11.4,15.4 11.8,15.6 12.2,15.9C12.5,16.2 12.7,16.6 12.7,17C12.7,17.4 12.5,17.8 12.2,18.2C11.9,18.5 11.5,18.7 11,18.7C10.8,18.7 10.6,18.7 10.4,18.6C10.2,18.5 10,18.4 9.9,18.3C9.7,18.2 9.6,18 9.5,17.8C9.4,17.5 9.3,17.3 9.3,17.1Z" style="fill:white;fill-rule:nonzero;"/>
        </g>
        <path d="M18,2C19.1,2 20,2.9 20,4L20,18C20,19.1 19.1,20 18,20L4,20C2.9,20 2,19.1 2,18L2,4C2,2.9 2.9,2 4,2L18,2M18,0L4,0C1.8,0 0,1.8 0,4L0,18C0,20.2 1.8,22 4,22L18,22C20.2,22 22,20.2 22,18L22,4C22,1.8 20.2,0 18,0Z" style="fill:white;fill-rule:nonzero;"/>
    </g>
</svg>
